<svg id="Group_32" data-name="Group 32" xmlns="http://www.w3.org/2000/svg" width="110.715" height="125.338" viewBox="0 0 110.715 125.338">
  <g id="Group_25" data-name="Group 25" transform="translate(41.347 0)">
    <path id="Path_14" data-name="Path 14" d="M741.873,739.465c3.66,8.327,3.434,19.943,3.189,32.542-.057,2.954-.116,5.968-.116,9.766,0,16.9-1.21,32.231-3.167,43.356-2.171,12.343-5.732,19.978-10.169,19.978s-8-7.634-10.169-19.978c-1.956-11.125-3.166-26.457-3.166-43.356,0-3.732-.043-6.48-.086-9.177-.2-12.843-.386-24.677,3.157-33.2a17.645,17.645,0,0,1,4.585-6.8,8.39,8.39,0,0,1,5.569-2.154,8.755,8.755,0,0,1,5.491,2.133,18.29,18.29,0,0,1,4.882,6.9Zm-2.124,32.459c.233-11.985.448-23.035-2.751-30.313a13.128,13.128,0,0,0-3.36-4.916,3.609,3.609,0,0,0-2.179-.945,3.257,3.257,0,0,0-2.089.9,12.53,12.53,0,0,0-3.105,4.782c-3.129,7.531-2.952,18.824-2.761,31.078.053,3.357.106,6.779.106,9.26,0,16.6,1.178,31.607,3.083,42.439,1.691,9.614,3.463,15.56,4.918,15.56s3.228-5.946,4.918-15.56c1.905-10.832,3.083-25.834,3.083-42.439C739.612,778.963,739.681,775.408,739.749,771.924Z" transform="translate(-718.099 -730.437)" fill="#03f7f7"/>
  </g>
  <g id="Group_26" data-name="Group 26" transform="translate(0 39.4)">
    <path id="Path_15" data-name="Path 15" d="M705.907,790.219,670,814.044l-3.45,2.927-.344.239a2.152,2.152,0,0,0-.71,1.48,15.757,15.757,0,0,0-.109,3.444,9.454,9.454,0,0,0,2.06-.832l.219-.094c7.669-3.061,14.61-5.626,20.712-7.622a131.2,131.2,0,0,1,16.205-4.355l.958,5.23a126.349,126.349,0,0,0-15.518,4.19c-6.063,1.982-12.841,4.483-20.243,7.434a10.282,10.282,0,0,1-5.369,1.388,4.466,4.466,0,0,1-4.205-3.648l-.083-.5a23.023,23.023,0,0,1,.142-5.592,7.089,7.089,0,0,1,2.943-4.906l3.469-2.944.25-.187,36.045-23.914Z" transform="translate(-660.021 -785.78)" fill="#03f7f7"/>
  </g>
  <g id="Group_27" data-name="Group 27" transform="translate(64.829 39.4)">
    <path id="Path_16" data-name="Path 16" d="M754.022,785.78l36.045,23.914.249.187,3.469,2.944a7.086,7.086,0,0,1,2.943,4.906,23.061,23.061,0,0,1,.142,5.592l-.083.5a4.466,4.466,0,0,1-4.205,3.648,10.285,10.285,0,0,1-5.368-1.388c-7.4-2.952-14.181-5.452-20.243-7.434a126.345,126.345,0,0,0-15.518-4.19l.958-5.23a131.206,131.206,0,0,1,16.205,4.355c6.1,2,13.044,4.562,20.713,7.622l.219.094a9.451,9.451,0,0,0,2.06.832,15.669,15.669,0,0,0-.11-3.444,2.149,2.149,0,0,0-.71-1.48l-.343-.239L787,814.044l-35.912-23.825Z" transform="translate(-751.084 -785.78)" fill="#03f7f7"/>
  </g>
  <g id="Group_28" data-name="Group 28" transform="translate(52.221 109.336)">
    <path id="Path_17" data-name="Path 17" d="M738.708,886.685a2.667,2.667,0,1,0-5.334,0v10.668a2.667,2.667,0,1,0,5.334,0Z" transform="translate(-733.374 -884.018)" fill="#03f7f7"/>
  </g>
  <g id="Group_29" data-name="Group 29" transform="translate(33.351 92.851)">
    <path id="Path_18" data-name="Path 18" d="M721.781,864.674a59.389,59.389,0,0,0-6.867,7.628,19.752,19.752,0,0,0-2.1,3.579c.611-.434,1.259-.909,1.913-1.387a34.2,34.2,0,0,1,6.405-4.078l1.917,4.958a33.585,33.585,0,0,0-5.176,3.412,39.79,39.79,0,0,1-5.435,3.591c-2.3,1.09-4.108.937-5.133-1.228l-.167-.479c-.962-3.751.819-7.8,3.446-11.472a64.517,64.517,0,0,1,7.492-8.336Z" transform="translate(-706.868 -860.861)" fill="#03f7f7"/>
  </g>
  <g id="Group_30" data-name="Group 30" transform="translate(59.234 92.851)">
    <path id="Path_19" data-name="Path 19" d="M748.2,860.861a64.414,64.414,0,0,1,7.492,8.336c2.628,3.671,4.41,7.721,3.446,11.472l-.166.479c-1.026,2.165-2.834,2.318-5.133,1.228a39.71,39.71,0,0,1-5.435-3.591,33.618,33.618,0,0,0-5.176-3.412l1.917-4.958a34.209,34.209,0,0,1,6.406,4.078c.654.478,1.3.954,1.913,1.387a19.715,19.715,0,0,0-2.105-3.579,59.329,59.329,0,0,0-6.866-7.628Z" transform="translate(-743.225 -860.861)" fill="#03f7f7"/>
  </g>
  <g id="Group_31" data-name="Group 31" transform="translate(43.129 12.306)">
    <path id="Path_20" data-name="Path 20" d="M720.6,750.251a27.608,27.608,0,0,1,23.082,0l-2.1,4.876a22.522,22.522,0,0,0-18.831,0Z" transform="translate(-720.603 -747.723)" fill="#03f7f7"/>
  </g>
</svg>
