<svg xmlns="http://www.w3.org/2000/svg" width="96.937" height="90" viewBox="0 0 96.937 90">
  <g id="Group_22" data-name="Group 22" transform="translate(-1199.389 -1047.242)">
    <g id="Group_18" data-name="Group 18" transform="translate(1199.389 1075.816)">
      <g id="Group_12" data-name="Group 12">
        <path id="Path_6" data-name="Path 6" d="M1204.757,1100.248h52.012a5.378,5.378,0,0,1,5.368,5.368v41.074a5.377,5.377,0,0,1-5.368,5.368h-31.935a8.9,8.9,0,0,0-1.306-4.039h33.242a1.338,1.338,0,0,0,1.329-1.329v-41.074a1.34,1.34,0,0,0-1.329-1.329h-52.012a1.338,1.338,0,0,0-1.329,1.329v41.074a1.336,1.336,0,0,0,1.329,1.329h3.519a8.907,8.907,0,0,0-1.306,4.039h-2.213a5.377,5.377,0,0,1-5.368-5.368v-41.074a5.378,5.378,0,0,1,5.368-5.368Z" transform="translate(-1199.389 -1100.248)" fill="#03f7f7"/>
      </g>
      <g id="Group_13" data-name="Group 13" transform="translate(54.032 29.209)">
        <path id="Path_7" data-name="Path 7" d="M1306.317,1154.431H1336.6a5.938,5.938,0,0,1,5.926,5.926v10.749a5.938,5.938,0,0,1-5.926,5.926h-5.947a8.9,8.9,0,0,0-1.306-4.039h7.253a1.9,1.9,0,0,0,1.887-1.887v-10.749a1.9,1.9,0,0,0-1.887-1.887h-30.282v-4.039Zm6.47,22.6a8.909,8.909,0,0,1,1.306-4.039H1299.62v4.039Z" transform="translate(-1299.62 -1154.431)" fill="#03f7f7"/>
      </g>
      <g id="Group_14" data-name="Group 14" transform="translate(58.71 12.054)">
        <path id="Path_8" data-name="Path 8" d="M1310.316,1122.609a2.02,2.02,0,0,0,0,4.039h13.431l10.226,15.433a2.015,2.015,0,0,0,3.361-2.225l-10.751-16.227a2.019,2.019,0,0,0-1.756-1.021Z" transform="translate(-1308.297 -1122.609)" fill="#03f7f7"/>
      </g>
      <g id="Group_15" data-name="Group 15" transform="translate(67.176 43.514)">
        <path id="Path_9" data-name="Path 9" d="M1332.958,1180.967a8.956,8.956,0,1,1-6.333,2.623,8.927,8.927,0,0,1,6.333-2.623Zm3.477,5.479a4.918,4.918,0,1,0,1.44,3.477A4.9,4.9,0,0,0,1336.435,1186.446Z" transform="translate(-1324.002 -1180.967)" fill="#03f7f7"/>
      </g>
      <g id="Group_16" data-name="Group 16" transform="translate(7.557 43.514)">
        <path id="Path_10" data-name="Path 10" d="M1222.364,1180.967a8.956,8.956,0,1,1-6.334,2.623,8.928,8.928,0,0,1,6.334-2.623Zm3.477,5.479a4.917,4.917,0,1,0,1.44,3.477A4.9,4.9,0,0,0,1225.84,1186.446Z" transform="translate(-1213.407 -1180.967)" fill="#03f7f7"/>
      </g>
      <g id="Group_17" data-name="Group 17" transform="translate(83.935 35.959)">
        <path id="Path_11" data-name="Path 11" d="M1366.073,1170.991a2.019,2.019,0,1,0,0-4.039h-8.963a2.019,2.019,0,1,0,0,4.039Z" transform="translate(-1355.09 -1166.952)" fill="#03f7f7"/>
      </g>
    </g>
    <g id="Group_19" data-name="Group 19" transform="translate(1214.364 1047.242)">
      <path id="Path_12" data-name="Path 12" d="M1235.8,1058.429l7.4-9.593,1.229-1.594,1.595,1.231a14.13,14.13,0,0,1-17.266,22.373l-1.593-1.229,1.23-1.595,7.4-9.593Zm9.237-5.38-6.05,7.841-6.049,7.84a10.106,10.106,0,0,0,12.1-15.681Z" transform="translate(-1227.168 -1047.242)" fill="#03f7f7"/>
    </g>
    <g id="Group_20" data-name="Group 20" transform="translate(1214.315 1051.087)">
      <rect id="Rectangle_11" data-name="Rectangle 11" width="4.027" height="11.424" transform="translate(0 3.188) rotate(-52.346)" fill="#03f7f7"/>
    </g>
    <g id="Group_21" data-name="Group 21" transform="translate(1226.057 1066.893)">
      <path id="Path_13" data-name="Path 13" d="M1248.858,1094.638v-4.123q.167-.018.335-.039a14.213,14.213,0,0,0,3.7-1v5.162Zm10.673-10.942h13.148v10.942h-4.039v-6.9h-12.724a14.229,14.229,0,0,0,3.615-4.04Z" transform="translate(-1248.858 -1083.696)" fill="#03f7f7"/>
    </g>
  </g>
</svg>
