<svg xmlns="http://www.w3.org/2000/svg" width="54.13" height="123.527" viewBox="0 0 54.13 123.527">
  <g id="Group_7" data-name="Group 7" style="isolation: isolate">
    <g id="Group_6" data-name="Group 6" transform="translate(0)">
      <g id="Group_2" data-name="Group 2" transform="translate(16.819 25.357)">
        <path id="Path_2" data-name="Path 2" d="M733.268,1386.74a10.25,10.25,0,1,1-7.245,3,10.216,10.216,0,0,1,7.245-3Zm3.567,6.68a5.046,5.046,0,1,0,1.477,3.568A5.03,5.03,0,0,0,736.835,1393.42Z" transform="translate(-723.021 -1386.74)" fill="#03f7f7"/>
      </g>
      <g id="Group_3" data-name="Group 3" transform="translate(20.82 103.139)">
        <rect id="Rectangle_8" data-name="Rectangle 8" width="5.202" height="20.388" fill="#03f7f7"/>
      </g>
      <g id="Group_4" data-name="Group 4" transform="translate(27.192 103.139)">
        <rect id="Rectangle_9" data-name="Rectangle 9" width="5.202" height="20.388" fill="#03f7f7"/>
      </g>
      <g id="Group_5" data-name="Group 5">
        <path id="Path_3" data-name="Path 3" d="M723.972,1446.932h3.779q.736-1.851,1.371-3.518.938-2.47,1.83-4.993l1.041-2.945,2.708,1.563L746.763,1444l.746-7.458-11.235-10.3-1.154-1.058.392-1.5c4.107-15.771,4.793-28.779,2.638-39.842a56.989,56.989,0,0,0-12.29-25.764,56.994,56.994,0,0,0-12.29,25.764c-2.155,11.063-1.469,24.071,2.639,39.842l.391,1.5-1.154,1.058-11.234,10.3.746,7.458,12.061-6.964,2.708-1.563,1.041,2.945q.892,2.522,1.831,4.993.634,1.668,1.371,3.518Zm5.533,5.2h-9.036l-.66-1.625q-1.024-2.528-2.065-5.266-.418-1.1-.81-2.16l-12.855,7.422-3.481,2.01-.4-4-1.274-12.743-.128-1.282.962-.882,11.049-10.128c-3.97-15.9-4.562-29.174-2.336-40.608a62.794,62.794,0,0,1,15.461-30.494l1.93-2.159,1.93,2.159a62.79,62.79,0,0,1,15.461,30.494c2.226,11.434,1.635,24.713-2.336,40.608l11.048,10.128.962.882-.128,1.282-1.274,12.743-.4,4-3.481-2.01-12.855-7.422q-.392,1.062-.81,2.16-1.039,2.737-2.065,5.266l-.659,1.625Z" transform="translate(-698.796 -1350.217)" fill="#03f7f7"/>
      </g>
    </g>
  </g>
</svg>
