<svg xmlns="http://www.w3.org/2000/svg" viewBox="0 0 169.41 133.13"><defs><style>.cls-1{fill:#03f7f7;}</style></defs><g id="Capa_2" data-name="Capa 2"><g id="Layer_2" data-name="Layer 2"><path class="cls-1" d="M36.61,32.15a15.34,15.34,0,0,0,6.58,1.34,15.2,15.2,0,0,0,6.46-1.27,10.05,10.05,0,0,0,4.23-3.49,9.08,9.08,0,0,0,1.5-5.18A7.8,7.8,0,0,0,54,18.72a9.93,9.93,0,0,0-4-3,29.47,29.47,0,0,0-6-1.89l-1.06-.23a16.28,16.28,0,0,1-3.17-1,4.51,4.51,0,0,1-1.87-1.38,3.28,3.28,0,0,1-.62-2,3.42,3.42,0,0,1,1.31-2.83,6.55,6.55,0,0,1,4.07-1,8.47,8.47,0,0,1,3.18.53,4.1,4.1,0,0,1,2,1.65,5.44,5.44,0,0,1,.72,3v1.38h6V10.49A10.38,10.38,0,0,0,53,4.67a9.59,9.59,0,0,0-4.23-3.5A15.33,15.33,0,0,0,42.63,0a14.77,14.77,0,0,0-6,1.13,8.92,8.92,0,0,0-4,3.22,8.77,8.77,0,0,0-1.41,5,8.24,8.24,0,0,0,1.27,4.79,8.93,8.93,0,0,0,3.63,3A26.26,26.26,0,0,0,41.85,19l1.06.23a26.28,26.28,0,0,1,3.52,1,5.56,5.56,0,0,1,2.21,1.35,3.14,3.14,0,0,1,.76,2.17,3.91,3.91,0,0,1-1.55,3.17,7.31,7.31,0,0,1-4.66,1.24,7.53,7.53,0,0,1-4.88-1.45,5.22,5.22,0,0,1-1.79-4.34V21.07h-6v1.29a10.71,10.71,0,0,0,1.61,6A10.47,10.47,0,0,0,36.61,32.15Z"/><path class="cls-1" d="M12.38,47.31H73.84a3.75,3.75,0,0,0,.12-7.5H12.5a3.75,3.75,0,0,0-.12,7.5Z"/><path class="cls-1" d="M145.23,84.77A24.18,24.18,0,1,0,169.41,109,24.1,24.1,0,0,0,145.23,84.77Zm11.8,36a16.69,16.69,0,1,1,0-23.6h0a16.68,16.68,0,0,1,0,23.6Z"/><path class="cls-1" d="M148.82,82.09a27.33,27.33,0,0,1,8.1,2.41,3.73,3.73,0,0,0,3.3-6.7l-.08,0a34.39,34.39,0,0,0-23.71-2.24l-23.26-63a3.74,3.74,0,0,0-3.58-2.65H83.3a3.75,3.75,0,0,0,0,7.5H107l7.93,21.48L88.08,73.53H74.67V49.92H37.33A37.44,37.44,0,0,0,0,87.26v6.38a12.16,12.16,0,0,0,12.14,12.14h3.33s0,0,0-.07a23.31,23.31,0,0,0-.23,3.24,24.19,24.19,0,1,0,48.14-3.3s0,.09,0,.13H99.28a3.76,3.76,0,0,0,3.41-2.2l22-38.17,4.71,12.78A34.57,34.57,0,0,0,111,104.42h0a3.73,3.73,0,0,0,7.4,1A27.13,27.13,0,0,1,148.82,82.09ZM51.24,120.75a16.69,16.69,0,1,1,0-23.6h0a16.69,16.69,0,0,1,0,23.6ZM67.17,98.29h-6s0,0,0,0a24.16,24.16,0,0,0-43.48.08.61.61,0,0,1,0-.12h-5.6a4.67,4.67,0,0,1-4.65-4.65V87.26A29.93,29.93,0,0,1,37.33,57.42H67.17Zm-4.07,5.62c0-.07,0-.13-.05-.2S63.08,103.84,63.1,103.91Zm-.47-1.85s0-.11-.05-.16S62.61,102,62.63,102.06ZM62,100.23l-.11-.27ZM15.79,104l.06-.29Zm.49-1.94,0-.1Zm.59-1.72c0-.12.09-.24.14-.36C17,100.06,16.91,100.18,16.87,100.3ZM120.94,57.06,97.13,98.29H74.67V81H91.73l1.13-1.46L118,47.08l3.45,9.34A3.63,3.63,0,0,0,120.94,57.06Z"/></g></g></svg>