<svg xmlns="http://www.w3.org/2000/svg" viewBox="0 0 196.07 124.25"><defs><style>.cls-1{fill:#00edff;}</style></defs><g id="Capa_2" data-name="Capa 2"><g id="Layer_2" data-name="Layer 2"><path class="cls-1" d="M184.08,59.08h-6.73L155.73,26.45a4.07,4.07,0,0,0-3.55-2.07H126.91V10.86A10.87,10.87,0,0,0,116.06,0H10.86A10.88,10.88,0,0,0,0,10.86V93.94a10.87,10.87,0,0,0,10.86,10.85h4.47l0-.27c0,.53-.08,1.07-.08,1.61a18.12,18.12,0,1,0,36.24,0c0-.55,0-1.1-.09-1.64,0,.11,0,.21,0,.31h84.46c0-.12,0-.24,0-.37a16.37,16.37,0,0,0-.09,1.72,18.12,18.12,0,0,0,36.24,0c0-.5,0-1-.07-1.47,0,0,0,.09,0,.14h12a12,12,0,0,0,12-12V71.07A12,12,0,0,0,184.08,59.08ZM150,32.55l17.57,26.53H126.91V32.55ZM40.43,113.16a9.95,9.95,0,1,1,0-14.07h0a10,10,0,0,1,0,14.07Zm8.79-15.85a18.11,18.11,0,0,0-28.63-4,17.8,17.8,0,0,0-3.17,4.28c.17-.33.36-.66.56-1H10.86a2.7,2.7,0,0,1-2.69-2.68V10.86a2.71,2.71,0,0,1,2.69-2.69h105.2a2.71,2.71,0,0,1,2.69,2.69v17.6h0V93.94a2.71,2.71,0,0,1-2.68,2.68H48.82C49,96.85,49.09,97.08,49.22,97.31Zm2.17,6.75c-.06-.51-.13-1-.23-1.5C51.26,103.06,51.33,103.56,51.39,104.06Zm-.3-1.8c-.09-.44-.21-.87-.33-1.3C50.89,101.39,51,101.82,51.09,102.26Zm-.42-1.62c-.15-.47-.33-.93-.51-1.38Q50.45,99.93,50.67,100.64ZM50,98.87c-.2-.45-.41-.89-.64-1.32C49.59,98,49.8,98.42,50,98.87Zm-34.6,5.26c.06-.51.13-1,.23-1.54C15.53,103.1,15.46,103.62,15.4,104.13Zm.24-1.59c.11-.53.24-1,.39-1.55C15.88,101.5,15.75,102,15.64,102.54Zm.45-1.75c.16-.51.34-1,.54-1.51C16.43,99.77,16.25,100.28,16.09,100.79Zm.63-1.72c.21-.49.44-1,.69-1.46C17.16,98.09,16.93,98.58,16.72,99.07ZM161,113.16a9.95,9.95,0,1,1,0-14.07h0a10,10,0,0,1,0,14.07Zm23.06-16.53H169.41l.2.34A18.11,18.11,0,0,0,136,104.25a18.1,18.1,0,0,1,2.59-7.63h-12a10.76,10.76,0,0,0,.35-2.68V67.25h57.17a3.86,3.86,0,0,1,3.82,3.82v1.66H173.85a4.09,4.09,0,0,0,0,8.17H187.9V92.81A3.85,3.85,0,0,1,184.08,96.63ZM172,103.87c0-.29-.09-.58-.14-.87C171.87,103.29,171.92,103.58,172,103.87Zm-.35-1.93-.18-.68Zm-.51-1.75c-.09-.25-.18-.51-.28-.76C170.92,99.68,171,99.94,171.1,100.19Zm-.6-1.5-.3-.63C170.3,98.27,170.41,98.48,170.5,98.69Z"/><polygon class="cls-1" points="63.71 37.95 56.81 37.95 50.42 49.59 49.59 49.59 43.2 37.95 36.3 37.95 45.63 53.91 36.2 70.15 43.1 70.15 49.59 58.23 50.42 58.23 56.91 70.15 63.8 70.15 54.38 53.91 63.71 37.95"/><polygon class="cls-1" points="73.92 64.63 73.92 37.95 67.85 37.95 67.85 70.15 88.64 70.15 88.64 64.63 73.92 64.63"/></g></g></svg>